<svg width="512" height="512" viewBox="0 0 512 512" fill="none" xmlns="http://www.w3.org/2000/svg">
<path d="M256 512L110.508 398L401.492 398L256 512Z" fill="#0D0C0C"/>
<rect x="110" y="50" width="292" height="348" fill="#0D0C0C"/>
<path d="M458.212 49.6539C471.924 49.6539 483.039 38.5385 483.039 24.827C483.039 11.1154 471.924 0 458.212 0C444.501 0 433.385 11.1154 433.385 24.827C433.385 38.5385 444.501 49.6539 458.212 49.6539Z" fill="#0D0C0C"/>
<rect x="66" y="10" width="381" height="29" fill="#0D0C0C"/>
<path d="M53.7996 49.6539C67.5112 49.6539 78.6266 38.5385 78.6266 24.827C78.6266 11.1154 67.5112 0 53.7996 0C40.0881 0 28.9727 11.1154 28.9727 24.827C28.9727 38.5385 40.0881 49.6539 53.7996 49.6539Z" fill="#0D0C0C"/>
<path d="M177.402 156.101C192.221 116.965 253.8 91.8947 295.783 92.0003C338.253 91.8947 345.152 116.965 330.325 156.101C318.798 185.456 298.216 212.048 270.616 223.294C270.576 229.466 270.84 235.636 271.408 241.782C271.967 247.651 268.297 252.425 262.877 252.425H261.728C256.317 252.425 251.085 247.655 250.531 241.782C250.125 237.373 249.876 232.951 249.783 228.525C246.989 228.82 244.147 228.996 241.247 228.978C238.424 228.991 235.603 228.849 232.795 228.552C232.905 232.969 233.121 237.382 233.543 241.786C234.115 247.655 230.428 252.429 225.012 252.429H223.864C218.43 252.429 213.216 247.66 212.667 241.786C212.101 235.662 211.837 229.514 211.875 223.364C184.169 212.145 165.862 185.509 177.402 156.101ZM212.842 338.123C221.132 344.983 224.269 352.286 219.222 354.776C214.193 357.262 202.384 354.31 193.479 347.794C187.324 343.293 184.495 338.176 185.146 334.494C179.501 333.966 172.497 330.939 167.133 326.015C159.368 318.901 158.541 310.449 164.652 307.431C170.776 304.408 181.015 308.139 188.155 315.522C189.066 316.463 189.885 317.418 190.619 318.368C203.383 312.002 216.538 305.473 230.125 298.794C206.119 290.545 182.241 281.926 158.501 272.941C158.615 273.997 158.642 275.044 158.558 276.069C157.889 284.024 150.81 287.794 142.099 284.666C133.405 281.538 126.867 272.554 128.165 264.476C129.04 258.892 133.207 255.337 138.354 254.708C134.249 250.374 132.226 244.254 133.906 238.579C136.322 230.373 144.985 226.365 152.605 229.651C160.243 232.934 164.445 242.266 162.641 250.418C162.423 251.407 162.102 252.37 161.682 253.291C191.729 265.386 222.002 276.911 252.484 287.86C276.666 276.104 300.965 264.594 325.38 253.331C324.667 252.419 324.04 251.445 323.505 250.418C319.268 242.266 322.423 232.938 329.933 229.651C337.453 226.365 345.993 230.373 349.618 238.579C352.117 244.254 351.805 250.374 349.13 254.708C354.458 255.342 359.817 258.897 363.121 264.476C367.881 272.554 367.05 281.538 360.591 284.666C354.163 287.794 344.061 284.019 338.671 276.069C338.012 275.101 337.442 274.074 336.969 273.002C319.159 281.487 301.403 290.083 283.701 298.789C303.41 305.554 323.208 312.058 343.089 318.298C342.724 317.405 342.465 316.471 342.319 315.517C341.215 308.134 348.171 304.404 357.194 307.426C366.236 310.444 374.42 318.896 376.14 326.011C377.319 330.93 374.789 333.957 369.963 334.489C376.091 338.172 381.261 343.289 383.241 347.79C386.088 354.306 380.72 357.258 370.601 354.772C360.512 352.282 349.979 344.978 347.753 338.119C347.482 337.316 347.334 336.476 347.313 335.629C318.722 327.461 290.292 318.745 262.036 309.485C244.528 318.182 227.036 326.911 209.56 335.673C210.687 336.438 211.782 337.252 212.842 338.123Z" fill="white"/>
<path d="M217.034 195.576C228.531 195.621 239.887 178.96 247.602 159.585C255.182 140.169 256.204 125.995 244.708 126C233.343 125.995 213.787 140.169 206.216 159.585C198.505 178.96 205.669 195.626 217.034 195.576ZM273.711 195.576C285.217 195.621 296.56 178.96 304.28 159.585C311.851 140.169 312.882 125.995 301.385 126C290.02 125.995 270.473 140.169 262.893 159.585C255.187 178.96 262.346 195.626 273.711 195.576Z" fill="#0D0C0C"/>
</svg>
