<svg width="1024" height="1024" viewBox="0 0 1024 1024" fill="none" xmlns="http://www.w3.org/2000/svg">
<path d="M512 1024L221.016 796L802.985 796L512 1024Z" fill="#0D0C0C"/>
<rect x="220" y="100" width="584" height="696" fill="#0D0C0C"/>
<path d="M916.424 99.3078C943.847 99.3078 966.078 77.077 966.078 49.6539C966.078 22.2308 943.847 0 916.424 0C889.001 0 866.77 22.2308 866.77 49.6539C866.77 77.077 889.001 99.3078 916.424 99.3078Z" fill="#0D0C0C"/>
<rect x="132" y="20" width="762" height="58" fill="#0D0C0C"/>
<path d="M107.599 99.3078C135.022 99.3078 157.253 77.077 157.253 49.6539C157.253 22.2308 135.022 0 107.599 0C80.1761 0 57.9453 22.2308 57.9453 49.6539C57.9453 77.077 80.1761 99.3078 107.599 99.3078Z" fill="#0D0C0C"/>
<path d="M354.805 312.201C384.442 233.929 507.6 183.789 591.565 184.001C676.507 183.789 690.305 233.929 660.65 312.201C637.595 370.912 596.431 424.096 541.232 446.588C541.152 458.931 541.681 471.271 542.816 483.563C543.933 495.302 536.594 504.849 525.753 504.849H523.457C512.633 504.849 502.171 495.31 501.062 483.563C500.251 474.746 499.752 465.903 499.566 457.05C493.978 457.64 488.294 457.992 482.495 457.956C476.849 457.982 471.206 457.698 465.591 457.103C465.811 465.938 466.242 474.764 467.087 483.572C468.231 495.311 460.857 504.858 450.025 504.858H447.728C436.86 504.858 426.433 495.319 425.333 483.572C424.203 471.324 423.674 459.028 423.749 446.728C368.339 424.289 331.724 371.017 354.805 312.201ZM425.685 676.247C442.263 689.965 448.537 704.572 438.444 709.553C428.387 714.524 404.769 708.62 386.958 695.588C374.648 686.586 368.99 676.352 370.292 668.987C359.002 667.931 344.993 661.877 334.267 652.03C318.735 637.802 317.081 620.898 329.304 614.861C341.553 608.816 362.029 616.278 376.311 631.043C378.132 632.927 379.769 634.836 381.239 636.737C406.766 624.004 433.077 610.945 460.25 597.588C412.237 581.09 364.482 563.852 317.002 545.881C317.231 547.993 317.284 550.088 317.116 552.138C315.779 568.047 301.62 575.589 284.197 569.332C266.809 563.076 253.733 545.107 256.329 528.951C258.08 517.785 266.413 510.675 276.709 509.416C268.499 500.749 264.451 488.508 267.813 477.157C272.643 460.746 289.97 452.73 305.211 459.303C320.487 465.867 328.89 484.531 325.282 500.837C324.847 502.814 324.204 504.74 323.364 506.583C383.457 530.773 444.003 553.823 504.969 575.721C553.331 552.209 601.93 529.188 650.759 506.662C649.334 504.839 648.08 502.889 647.011 500.837C638.537 484.531 644.846 465.876 659.867 459.303C674.905 452.73 691.985 460.746 699.236 477.157C704.234 488.508 703.61 500.749 698.259 509.416C708.916 510.684 719.633 517.794 726.242 528.951C735.763 545.107 734.1 563.076 721.182 569.332C708.326 575.589 688.122 568.039 677.343 552.138C676.024 550.201 674.884 548.148 673.937 546.005C638.318 562.974 602.806 580.165 567.402 597.579C606.82 611.108 646.415 624.116 686.178 636.596C685.448 634.809 684.931 632.942 684.638 631.035C682.429 616.269 696.341 608.807 714.389 614.852C732.472 620.889 748.839 637.793 752.28 652.022C754.638 661.859 749.578 667.914 739.925 668.978C752.183 676.344 762.522 686.577 766.482 695.579C772.175 708.611 761.44 714.516 741.201 709.544C721.024 704.564 699.958 689.956 695.505 676.238C694.964 674.631 694.667 672.952 694.625 671.257C637.445 654.922 580.584 637.489 524.073 618.97C489.057 636.365 454.073 653.823 419.121 671.345C421.373 672.876 423.564 674.504 425.685 676.247Z" fill="white"/>
<path d="M434.068 391.152C457.061 391.242 479.774 357.92 495.205 319.17C510.365 280.339 512.409 251.991 489.416 252C466.685 251.991 427.574 280.339 412.432 319.17C397.01 357.92 411.338 391.251 434.068 391.152ZM547.423 391.152C570.434 391.242 593.119 357.92 608.56 319.17C623.701 280.339 625.764 251.991 602.771 252C580.04 251.991 540.946 280.339 525.787 319.17C510.374 357.92 524.692 391.251 547.423 391.152Z" fill="#0D0C0C"/>
</svg>
